<?xml version="1.0" encoding="iso-8859-1"?>
<!-- Generator: Adobe Illustrator 19.0.0, SVG Export Plug-In . SVG Version: 6.00 Build 0)  -->
<svg version="1.1" id="Layer_1" xmlns="http://www.w3.org/2000/svg" xmlns:xlink="http://www.w3.org/1999/xlink" x="0px" y="0px"
	 viewBox="0 0 512 512" style="enable-background:new 0 0 512 512;" xml:space="preserve">
<g>
	<g>
		<path d="M509.534,231.034c-8.653-23.195-35.356-42.812-79.363-58.305c-20.38-7.175-39.633-11.785-50.482-14.112
			c-10.031-21.838-25.6-40.566-45.457-54.536C311.245,87.91,284.193,79.362,256,79.362c-28.194,0-55.247,8.547-78.233,24.719
			c-19.857,13.97-35.426,32.697-45.457,54.537c-10.849,2.326-30.102,6.936-50.481,14.111c-44.008,15.494-70.71,35.111-79.363,58.305
			c-3.294,8.831-4.928,22.66,5.997,38.396c19.478,28.056,69.65,46.342,97.824,54.744c2.465,0.736,4.957,1.443,7.456,2.143
			l-21.39,74.997l32.109,9.158l21.742-76.236c30.437,6.393,62.216,10.276,93.105,11.316v87.085h33.388v-87.085
			c30.889-1.041,62.668-4.924,93.105-11.316l21.743,76.236l32.108-9.158l-21.39-74.997c2.499-0.7,4.99-1.408,7.456-2.144
			c28.173-8.403,78.346-26.687,97.824-54.744C514.463,253.694,512.83,239.865,509.534,231.034z M129.15,264.107
			c-8.981,0-16.262-7.281-16.262-16.262c0-8.983,7.281-16.263,16.262-16.263c8.981,0,16.262,7.281,16.262,16.263
			C145.413,256.826,138.132,264.107,129.15,264.107z M256,290.127c-8.982,0-16.262-7.281-16.262-16.262
			c0-8.981,7.281-16.262,16.262-16.262c8.981,0,16.262,7.281,16.262,16.262C272.262,282.846,264.981,290.127,256,290.127z
			 M256,198.788c-41.329,0-65.639-9.225-78.755-16.965c-6.649-3.923-11.083-7.794-13.898-10.761
			c16.941-35.208,53.132-58.311,92.653-58.311c39.521,0,75.712,23.104,92.653,58.312C339.847,180.228,314.733,198.788,256,198.788z
			 M382.849,264.107c-8.981,0-16.262-7.281-16.262-16.262c0-8.981,7.281-16.263,16.262-16.263c8.982,0,16.262,7.281,16.262,16.263
			C399.111,256.826,391.83,264.107,382.849,264.107z"/>
	</g>
</g>
<g>
</g>
<g>
</g>
<g>
</g>
<g>
</g>
<g>
</g>
<g>
</g>
<g>
</g>
<g>
</g>
<g>
</g>
<g>
</g>
<g>
</g>
<g>
</g>
<g>
</g>
<g>
</g>
<g>
</g>
</svg>
